<svg id="Layer_1" data-name="Layer 1" xmlns="http://www.w3.org/2000/svg" xmlns:xlink="http://www.w3.org/1999/xlink" viewBox="0 0 1500 1000"><defs><style>.cls-1{fill:none;}.cls-2{clip-path:url(#clip-path);}.cls-3{fill:#db1f26;}.cls-4{fill:#dd2d26;}.cls-5{fill:#fddd00;}</style><clipPath id="clip-path"><rect class="cls-1" x="0.08" y="0.18" width="1500" height="1000"/></clipPath></defs><title>Flag-of-China</title><g class="cls-2"><rect class="cls-3" x="-78.34" y="-99.82" width="1656.86" height="1200"/><rect class="cls-4" x="0.08" y="0.18" width="1500" height="1000"/><polygon class="cls-5" points="286.56 284.85 370.87 223.17 266.65 223.17 234.44 123.36 202.24 223.17 98.02 223.17 182.33 284.85 150.13 384.66 234.44 322.98 318.76 384.66 286.56 284.85"/><polygon class="cls-5" points="487.28 135.43 521.14 127.58 489.17 113.89 492.22 79.05 469.42 105.44 437.45 91.74 455.32 121.74 432.52 148.13 466.37 140.28 484.24 170.28 487.28 135.43"/><polygon class="cls-5" points="577.18 236.17 611.4 242.16 587.22 217.06 603.45 186.13 572.27 201.54 548.08 176.42 552.99 211.06 521.81 226.46 556.03 232.46 560.94 267.09 577.18 236.17"/><polygon class="cls-5" points="586.7 369.15 614.05 347.6 579.34 348.85 567.42 315.98 557.88 349.62 523.17 350.87 551.98 370.41 542.43 404.05 569.79 382.49 598.61 402.02 586.7 369.15"/><polygon class="cls-5" points="487.77 471.89 521.27 462.63 488.77 450.29 490.38 415.35 468.68 442.66 436.17 430.32 455.27 459.55 433.57 486.87 467.07 477.61 486.16 506.84 487.77 471.89"/></g></svg>