<svg id="Layer_1" data-name="Layer 1" xmlns="http://www.w3.org/2000/svg" xmlns:xlink="http://www.w3.org/1999/xlink" viewBox="0 0 1500 1000"><defs><style>.cls-1{fill:none;}.cls-2{clip-path:url(#clip-path);}.cls-3{fill:#fff;}.cls-4{fill:#d02027;}.cls-5{fill:#18325b;}</style><clipPath id="clip-path"><rect class="cls-1" x="0.55" y="0.17" width="1500" height="1000"/></clipPath></defs><title>Flag-of-Great Britain</title><g class="cls-2"><rect class="cls-3" x="0.54" y="0.16" width="1500.03" height="1000.02"/><polyline class="cls-4" points="1500.57 400.17 825.55 400.17 825.55 0.16 675.55 0.16 675.55 400.17 0.54 400.17 0.54 600.17 675.55 600.17 675.55 1000.18 825.55 1000.18 825.55 600.17 1500.57 600.17"/><path class="cls-4" d="M1000.56,666.84h111.8l388.21,258.8v74.54M500.55,333.5H388.74L.54,74.7V.16Zm0,333.34h111.8l-500,333.34H.54Zm500-333.34H888.75L1388.75.16h111.82Z"/><path class="cls-5" d="M.54,666.84V888.38l332.3-221.54m1167.73,0V888.38L1168.26,666.84ZM.54,333.5V112L332.84,333.5Zm1500,0V112L1168.26,333.5Zm-875,666.68V695.31l-457.3,304.87Zm250,0V695.31l457.31,304.87ZM625.55.16V305L168.25.16Zm250,0V305L1332.86.16Z"/></g></svg>